<svg version="1.1" id="Layer_1" xmlns="http://www.w3.org/2000/svg" xmlns:xlink="http://www.w3.org/1999/xlink" x="0px" y="0px"
	 width="100%" viewBox="0 0 1920 1080" enable-background="new 0 0 1920 1080" xml:space="preserve">
<path fill="#000000" opacity="1.000000" stroke="none" 
	d="
M1776.000000,1081.000000 
	C1184.000122,1081.000000 592.500183,1081.000000 1.000238,1081.000000 
	C1.000159,721.000183 1.000159,361.000336 1.000079,1.000383 
	C640.999695,1.000255 1280.999390,1.000255 1920.999268,1.000128 
	C1920.999512,360.999634 1920.999512,720.999268 1920.999756,1080.999512 
	C1872.833374,1081.000000 1824.666626,1081.000000 1776.000000,1081.000000 
M1022.342224,606.743469 
	C1021.364624,606.416626 1020.142944,606.354736 1019.451111,605.717590 
	C1016.210449,602.733093 1013.314697,599.345581 1009.909912,596.576416 
	C1006.833374,594.074097 1003.201111,592.267761 999.914673,590.007935 
	C994.563843,586.328674 990.932800,581.790283 989.507263,574.965454 
	C987.692566,566.277344 982.410889,559.769958 973.357605,557.148315 
	C971.999756,556.755066 970.687256,556.205139 968.227234,555.324341 
	C992.937683,517.585449 1025.295044,487.191895 1054.601807,453.107483 
	C1052.808838,453.107483 1052.370605,452.968842 1052.173096,453.128235 
	C1049.198853,455.528290 1046.193481,457.895844 1043.315796,460.408691 
	C1015.091919,485.053619 985.743164,508.167572 953.175232,526.927002 
	C949.331421,529.141052 945.717285,530.837341 941.084961,528.427979 
	C938.371094,527.016479 934.993774,526.308533 931.910278,526.294373 
	C924.701782,526.261230 918.921936,523.016541 914.063782,518.423096 
	C907.623108,512.333313 900.565552,510.645203 892.049805,512.412231 
	C888.536804,513.141235 884.422668,514.309387 881.828430,510.033173 
	C886.710938,497.433044 893.854614,486.281586 903.776794,477.099182 
	C931.244141,451.680145 969.007935,446.013275 1003.015686,461.948395 
	C1004.396362,462.595306 1006.636292,463.381165 1007.542847,462.753937 
	C1014.544495,457.909058 1021.315918,452.731445 1028.312134,447.543243 
	C985.410278,416.707001 917.312500,419.903961 876.977966,468.399506 
	C837.513672,515.848694 842.894775,585.163086 889.655457,626.574829 
	C934.600647,666.378784 1005.206238,664.283081 1048.073730,617.748962 
	C1087.035278,575.454956 1085.009033,513.507080 1057.861328,477.822144 
	C1053.307007,484.088318 1048.956177,490.360901 1044.272949,496.374603 
	C1042.439331,498.729279 1042.475342,500.519501 1043.696411,503.107391 
	C1051.804077,520.289856 1054.021118,538.248474 1050.708984,556.987671 
	C1047.211060,576.777649 1037.493774,593.008667 1022.342224,606.743469 
z"/>
<path fill="#EAECF8" opacity="1.000000" stroke="none" 
	d="
M1023.089233,606.685364 
	C1037.493774,593.008667 1047.211060,576.777649 1050.708984,556.987671 
	C1054.021118,538.248474 1051.804077,520.289856 1043.696411,503.107391 
	C1042.475342,500.519501 1042.439331,498.729279 1044.272949,496.374603 
	C1048.956177,490.360901 1053.307007,484.088318 1057.861328,477.822144 
	C1085.009033,513.507080 1087.035278,575.454956 1048.073730,617.748962 
	C1005.206238,664.283081 934.600647,666.378784 889.655457,626.574829 
	C842.894775,585.163086 837.513672,515.848694 876.977966,468.399506 
	C917.312500,419.903961 985.410278,416.707001 1028.312134,447.543243 
	C1021.315918,452.731445 1014.544495,457.909058 1007.542847,462.753937 
	C1006.636292,463.381165 1004.396362,462.595306 1003.015686,461.948395 
	C969.007935,446.013275 931.244141,451.680145 903.776794,477.099182 
	C893.854614,486.281586 886.710938,497.433044 881.395142,510.581116 
	C880.518860,512.729797 880.078308,514.331177 879.632629,515.931152 
	C874.251160,535.252075 874.960876,554.224060 882.338867,573.000244 
	C886.219849,582.877014 891.725952,591.570496 898.639526,599.564331 
	C908.917725,611.448608 921.684937,619.805359 936.347473,624.627380 
	C957.752869,631.666870 979.180725,630.694214 999.999756,621.563416 
	C1008.484192,617.842346 1016.802246,613.831482 1023.089233,606.685364 
z"/>
<path fill="#9D8FF2" opacity="1.000000" stroke="none" 
	d="
M1022.715698,606.714417 
	C1016.802246,613.831482 1008.484192,617.842346 999.999756,621.563416 
	C979.180725,630.694214 957.752869,631.666870 936.347473,624.627380 
	C921.684937,619.805359 908.917725,611.448608 898.639526,599.564331 
	C891.725952,591.570496 886.219849,582.877014 882.338867,573.000244 
	C874.960876,554.224060 874.251160,535.252075 879.632629,515.931152 
	C880.078308,514.331177 880.518860,512.729797 881.139771,510.954865 
	C884.422668,514.309387 888.536804,513.141235 892.049805,512.412231 
	C900.565552,510.645203 907.623108,512.333313 914.063782,518.423096 
	C918.921936,523.016541 924.701782,526.261230 931.910278,526.294373 
	C934.993774,526.308533 938.371094,527.016479 941.084961,528.427979 
	C945.717285,530.837341 949.331421,529.141052 953.175232,526.927002 
	C985.743164,508.167572 1015.091919,485.053619 1043.315796,460.408691 
	C1046.193481,457.895844 1049.198853,455.528290 1052.173096,453.128235 
	C1052.370605,452.968842 1052.808838,453.107483 1054.601807,453.107483 
	C1025.295044,487.191895 992.937683,517.585449 968.227234,555.324341 
	C970.687256,556.205139 971.999756,556.755066 973.357605,557.148315 
	C982.410889,559.769958 987.692566,566.277344 989.507263,574.965454 
	C990.932800,581.790283 994.563843,586.328674 999.914673,590.007935 
	C1003.201111,592.267761 1006.833374,594.074097 1009.909912,596.576416 
	C1013.314697,599.345581 1016.210449,602.733093 1019.451111,605.717590 
	C1020.142944,606.354736 1021.364624,606.416626 1022.715698,606.714417 
z"/>
</svg>