<svg width="220" height="56" viewBox="0 0 220 56" fill="none" xmlns="http://www.w3.org/2000/svg" role="img" aria-label="Phantom placeholder wordmark">

  <rect x="0" y="4" width="48" height="48" rx="13" fill="#AB9FF2"></rect>
  <path d="M24 13c-7.2 0-13 5.8-13 13v13c0 1.3 1.5 1.9 2.4 1.1l2.3-2a1.8 1.8 0 0 1 2.3 0l2 1.7a1.8 1.8 0 0 0 2.3 0l2-1.7a1.8 1.8 0 0 1 2.3 0l2 1.7a1.8 1.8 0 0 0 2.3 0l2.3 2c.9.8 2.4.2 2.4-1.1V26c0-7.2-5.8-13-13-13Z" fill="#fff"></path>
  <ellipse cx="20" cy="26" rx="2.4" ry="3.3" fill="#3C315B"></ellipse>
  <ellipse cx="28" cy="26" rx="2.4" ry="3.3" fill="#3C315B"></ellipse>
  <text x="62" y="37" font-family="&#39;General Sans&#39;, Inter, sans-serif" font-size="30" font-weight="600" fill="#FFFFFF" letter-spacing="-0.5">Phantom</text>
</svg>
